<svg xmlns="http://www.w3.org/2000/svg" width="128.9" height="26.632" viewBox="0 0 128.9 26.632"><defs><style>.a{fill:#fff;}</style></defs><g transform="translate(0 0.075)"><path class="a" d="M7.679,0H0V20.654H3.575V12.631h4.1c3.892,0,6.593-2.595,6.593-6.3S11.571,0,7.679,0Zm-.53,9.453H3.575V3.178H7.149c2.145,0,3.5,1.218,3.5,3.178C10.645,8.262,9.294,9.453,7.149,9.453Z" transform="translate(0 -0.055)"/><rect class="a" width="3.469" height="20.654" transform="translate(16.073 -0.055)"/><path class="a" d="M96.531,35.9V24.3H93.062v8.394c0,1.959-1.086,3.125-2.913,3.125-2.516,0-2.807-2.224-2.807-3.178V24.3H83.9v8.95a5.931,5.931,0,0,0,1.43,4.025A5.171,5.171,0,0,0,89.3,38.917a4.563,4.563,0,0,0,3.945-1.854,9.2,9.2,0,0,0,.106,1.4v.026h3.31V38.44C96.637,38.149,96.531,37.169,96.531,35.9Z" transform="translate(-61.684 -17.921)"/><path class="a" d="M150.924,25.233a4.611,4.611,0,0,0-4.131-1.933,6.584,6.584,0,0,0-6.567,6.911c0,4,2.754,6.911,6.567,6.911a4.736,4.736,0,0,0,4.051-1.933v1.3c0,2.807-1.3,4.184-3.945,4.184a3.392,3.392,0,0,1-3.5-2.992v-.053l-3.2.847v.053a5.734,5.734,0,0,0,2.118,3.681,7.309,7.309,0,0,0,4.66,1.536,6.915,6.915,0,0,0,5.64-2.251,7.664,7.664,0,0,0,1.642-5.084V23.565H151.4Zm-3.575,8.95c-2.2,0-3.628-1.562-3.628-3.945,0-2.357,1.456-3.919,3.628-3.919a3.59,3.59,0,0,1,3.575,3.919C150.924,32.594,149.494,34.183,147.349,34.183Z" transform="translate(-103.076 -17.185)"/><path class="a" d="M303.879,0H296.2V20.654h3.575V12.631h4.1c3.892,0,6.593-2.595,6.593-6.3S307.745,0,303.879,0Zm-.53,9.453h-3.575V3.178h3.575c2.145,0,3.5,1.218,3.5,3.178C306.845,8.262,305.494,9.453,303.349,9.453Z" transform="translate(-217.768 -0.055)"/><rect class="a" width="3.469" height="20.654" transform="translate(94.505 -0.055)"/><path class="a" d="M391.613,35.039V28.022a5.188,5.188,0,0,0-1.377-3.734,6.331,6.331,0,0,0-4.66-1.589,6.461,6.461,0,0,0-4.21,1.4,4.968,4.968,0,0,0-1.774,3.257v.053l3.178.715v-.053a2.682,2.682,0,0,1,2.86-2.516c1.642,0,2.621.794,2.621,2.092,0,.556-.318.874-1.006.98l-3.628.556c-2.7.4-4.316,2.012-4.316,4.316,0,2.463,2.065,4.316,4.846,4.316a4.981,4.981,0,0,0,4.316-2.118,5.158,5.158,0,0,0,.159,1.642v.026h3.23v-.053A6.638,6.638,0,0,1,391.613,35.039Zm-3.389-3.6c0,2.992-1.88,3.6-3.469,3.6a1.823,1.823,0,0,1-2.012-1.774,1.964,1.964,0,0,1,1.854-1.88l3.628-.53Z" transform="translate(-278.864 -16.744)"/><path class="a" d="M440.4,24.3l-3.76,8.871-4.025-8.844V24.3H428.7l6.064,12.5-3.416,7.441h3.707l9-19.86.026-.079Z" transform="translate(-315.183 -17.921)"/><path class="a" d="M225.108,16.018h0a8.085,8.085,0,0,0,1.271-2.251,9.2,9.2,0,0,0,.5-3.469v-.265h-3.257l-.265.026.026.265a6.253,6.253,0,0,1-.238,2.224,3.8,3.8,0,0,1-.344.847l-.053.106-3.5-3.919.079-.053c.371-.238.741-.5,1.112-.768a6.862,6.862,0,0,0,1.218-1.086,5.467,5.467,0,0,0,.874-1.324,4.34,4.34,0,0,0,.318-1.721,4.762,4.762,0,0,0-.371-1.88A4.4,4.4,0,0,0,221.4,1.242a4.962,4.962,0,0,0-1.668-.98,7.066,7.066,0,0,0-4.316,0,4.963,4.963,0,0,0-1.668.98,4.012,4.012,0,0,0-1.059,1.509,5.03,5.03,0,0,0-.371,1.933,5.049,5.049,0,0,0,.662,2.595A12.949,12.949,0,0,0,214.3,9.186l.053.053-.079.053c-.583.371-1.112.741-1.562,1.086a8.159,8.159,0,0,0-1.377,1.3,5.425,5.425,0,0,0-.847,1.536,6.007,6.007,0,0,0-.291,1.907,5.613,5.613,0,0,0,.53,2.463,5.7,5.7,0,0,0,1.43,1.827,5.891,5.891,0,0,0,2.092,1.112,8.577,8.577,0,0,0,2.489.371,7.9,7.9,0,0,0,3.389-.688,10.392,10.392,0,0,0,2.383-1.589l.053-.053,1.827,2.092h4.74l-4.1-4.581ZM216.29,3.52a2.086,2.086,0,0,1,2.621-.026,1.7,1.7,0,0,1,.477,1.3,1.936,1.936,0,0,1-.556,1.43,8.473,8.473,0,0,1-1.562,1.192l-.053.026-.053-.053a9.392,9.392,0,0,1-.953-1.192,2.327,2.327,0,0,1-.424-1.35A1.818,1.818,0,0,1,216.29,3.52Zm4.025,12.551a6.873,6.873,0,0,1-1.4,1.086,3.662,3.662,0,0,1-1.96.5,3.179,3.179,0,0,1-2.145-.715,2.467,2.467,0,0,1-.821-1.986,3.3,3.3,0,0,1,.159-1.059,2.813,2.813,0,0,1,.477-.874,3.763,3.763,0,0,1,.794-.794,8.836,8.836,0,0,1,.9-.662l.053-.026,3.972,4.528Z" transform="translate(-154.54 0)"/></g></svg>